<svg class="svg-icon" style="width: 1em; height: 1em;vertical-align: middle;fill: currentColor;overflow: hidden;" viewBox="0 0 1024 1024" version="1.1" xmlns="http://www.w3.org/2000/svg"><path d="M128 320A106.666667 106.666667 0 0 1 234.666667 213.333333h85.333333a106.666667 106.666667 0 0 1 104.533333 85.333334H810.666667a85.333333 85.333333 0 0 1 85.333333 85.333333v341.333333a85.333333 85.333333 0 0 1-85.333333 85.333334H213.333333a85.333333 85.333333 0 0 1-85.333333-85.333334V320zM490.666667 213.333333a21.333333 21.333333 0 1 0 0 42.666667h298.666666a21.333333 21.333333 0 1 0 0-42.666667h-298.666666z"  /></svg>